PathFileType	4	(X/Y/Z)	C:\Users\WrightLab\Desktop\Jo\P4V124.trc
DataRate	CameraRate	NumFrames	NumMarkers	Units	OrigDataRate	OrigDataStartFrame	OrigNumFrames
100.00	100.00	       20	19	mm	100.00	141	       562
Frame#	Time	Headset_Front			Headset_Back			Headset_Left			Headset_Right			Left_Shoulder			Right_Shoulder			Sternum			C7			Left Elbow			Right Elbow			Left Wrist			Right Wrist			Left ASIS			Right ASIS			S2			Left Knee			Right Knee			Left Ankle			Right Ankle			
		X1	Y1	Z1	X2	Y2	Z2	X3	Y3	Z3	X4	Y4	Z4	X5	Y5	Z5	X6	Y6	Z6	X7	Y7	Z7	X8	Y8	Z8	X9	Y9	Z9	X10	Y10	Z10	X11	Y11	Z11	X12	Y12	Z12	X13	Y13	Z13	X14	Y14	Z14	X15	Y15	Z15	X16	Y16	Z16	X17	Y17	Z17	X18	Y18	Z18	X19	Y19	Z19	

141	1.400	-640.13538	1743.20276	-858.64551	-663.93597	1426.67224	-675.71368							-499.23285	1484.44885	-740.33154	-791.60919	1493.15662	-825.77917				-635.35059	1521.14709	-839.65125	-354.67795	1136.68408	-743.27258	-933.41003	1144.54309	-839.23218	-383.45129	840.22473	-650.39886	-973.77112	920.57861	-632.87872	-541.98859	984.89923	-644.94055	-850.20331	1000.28534	-769.50085				-627.10522	514.75043	-581.57800	-903.86633	520.09406	-822.13947	-736.17755	35.25862	-646.72498				
142	1.410	-642.34656	1744.21533	-849.33319	-664.75372	1426.25745	-665.26849							-501.92813	1486.54993	-731.81512	-794.24811	1494.39758	-814.98645				-638.21436	1522.25525	-830.04199	-356.99054	1138.59766	-731.91125	-936.12006	1145.77490	-829.68860	-388.03561	841.63123	-639.30762	-975.31085	918.27704	-625.61676	-540.50537	985.95807	-635.37524	-851.21204	1003.13287	-759.01697				-626.60358	514.21124	-576.98608	-912.87213	523.21777	-799.52942	-736.09448	36.21635	-646.76410				
143	1.420	-644.52124	1745.78357	-840.32782	-666.73322	1428.01074	-655.18658							-502.81570	1488.49500	-726.61542	-796.85034	1495.15759	-804.12665				-641.04761	1523.80139	-820.92169	-359.78214	1140.02478	-720.86310	-938.95264	1146.82825	-819.54578	-391.83322	843.87921	-627.08002	-977.56305	917.40601	-618.45068	-539.83887	986.01221	-628.25427	-851.51166	1002.96887	-747.84625				-626.78333	513.38922	-573.29449	-920.56366	526.19189	-775.64648	-736.31653	36.43384	-646.78290				
144	1.430	-646.85364	1747.20996	-830.64661	-668.70862	1429.57654	-647.23462							-505.50543	1490.57373	-718.17804	-799.72656	1496.40454	-793.95569				-643.77948	1525.38867	-812.25116	-362.10724	1141.50623	-710.99176	-941.84784	1147.63257	-809.46753	-396.33981	845.40723	-615.39789	-979.48553	917.19000	-609.56842	-538.57806	986.81458	-619.42902	-850.64392	1006.36865	-734.39941				-626.57172	512.81738	-569.91266	-926.79932	530.24371	-751.96533	-736.09448	36.21635	-646.76410				
145	1.440	-649.09833	1749.11902	-821.15015	-669.64111	1430.51611	-637.41058							-507.68045	1492.11182	-708.28375	-802.11609	1496.83557	-784.10406				-646.49463	1526.83826	-802.63617	-364.55777	1143.14966	-699.06683	-944.62170	1148.40796	-799.22955	-402.14328	848.96661	-602.22522	-982.37946	914.62524	-602.92975	-537.67151	986.60486	-612.47943	-853.49347	1010.45306	-720.91132				-627.48145	512.74927	-567.06055	-932.19324	534.17560	-728.05365	-736.34766	36.65679	-646.68958				
146	1.450	-651.37952	1750.90076	-811.66211	-670.19269	1431.68652	-628.73779							-508.73447	1494.52039	-704.34625	-804.17450	1498.01001	-774.19238				-648.96313	1528.49304	-793.66925	-368.14200	1144.33325	-687.73761	-947.13696	1149.44055	-789.70782	-406.51395	851.37640	-590.24902	-984.34003	913.36499	-595.62323	-536.65387	987.14093	-603.66479	-854.20239	1013.30267	-709.54242				-626.69501	512.38190	-563.81628	-936.40582	539.10486	-704.94922	-736.34766	36.65679	-646.68958				
147	1.460	-653.71051	1752.62061	-802.65326	-670.89789	1433.82837	-619.40082							-511.14612	1496.42407	-696.07269	-805.96106	1498.49524	-764.45190				-651.37622	1529.90930	-785.12946	-370.84915	1145.73499	-677.23090	-949.60504	1150.60071	-779.64850	-410.73853	853.65448	-577.09143	-986.08313	912.31445	-589.35504	-535.99738	987.91931	-597.13226	-852.83636	1013.81415	-701.01764				-626.43781	511.76407	-561.54773	-940.01245	544.01471	-680.83191	-735.90295	36.97977	-646.64771				
148	1.470	-656.00482	1754.34839	-793.16327	-673.07312	1435.77747	-611.00256							-511.65405	1498.25623	-690.80023	-808.37646	1499.80017	-755.15424				-653.73999	1531.09766	-776.50146	-372.82202	1148.07568	-667.37384	-951.94690	1151.73682	-770.55237	-415.26727	856.99457	-563.00366	-988.01581	910.04968	-582.40558	-534.42389	987.84705	-589.94409	-854.65863	1018.39575	-683.64685				-625.76697	510.88837	-558.08923	-943.44147	549.20142	-656.82593	-736.41510	36.82772	-646.64294				
149	1.480	-658.30371	1756.14368	-784.32007	-672.82391	1436.96582	-602.05182							-513.96503	1500.21936	-682.18378	-810.43317	1500.45728	-745.69708				-655.94708	1532.63403	-768.28333	-375.84195	1149.77429	-656.69391	-954.20416	1152.68164	-760.34583	-419.95508	859.57208	-549.16528	-990.00122	909.40692	-576.87885	-533.26514	988.34381	-582.89630	-855.35754	1021.28845	-672.80365				-624.39868	510.86914	-554.91907	-946.53687	554.64600	-633.09741	-736.73926	37.22048	-646.72235				
150	1.490	-660.37372	1757.92334	-775.73340	-672.98187	1438.35901	-593.36243							-514.20667	1501.95374	-676.86981	-811.51685	1500.83496	-735.72681				-657.97406	1533.69019	-759.71277	-378.26624	1151.25134	-645.05804	-956.20959	1153.32483	-750.82843	-424.44351	863.46234	-535.04321	-992.15063	908.81140	-569.67743	-531.71136	989.11572	-576.84418	-853.14191	1022.77582	-660.91852				-623.57819	510.69077	-551.27557	-947.38959	560.12561	-609.88922	-735.82959	37.60674	-646.01123				
151	1.500	-662.39789	1759.49500	-766.83044										-516.29999	1503.72424	-668.55481	-813.42767	1501.71021	-726.42493				-660.18030	1534.48389	-751.57800	-380.06009	1153.22302	-635.86365	-957.93085	1154.36548	-740.91956	-429.01645	866.97211	-519.93353	-993.98785	906.15533	-563.04865	-530.45508	990.62396	-571.38861	-853.41882	1025.35437	-643.96448				-623.10419	510.76309	-548.48413	-948.97284	564.89734	-586.41876	-734.88190	38.12049	-645.21582				
152	1.510	-664.36829	1760.65674	-757.85907										-516.58154	1505.31677	-663.78925	-814.45758	1502.50562	-716.67200	-673.87695	1441.83386	-576.88098	-661.81647	1535.52356	-743.00305	-381.88113	1155.29749	-626.15863	-959.77460	1155.37549	-732.13068	-433.11850	870.79865	-505.25644	-995.58582	904.75500	-556.42731	-527.91791	991.51508	-563.58728	-853.07172	1027.35608	-634.76581				-621.14026	510.40152	-545.49744	-948.56598	570.00391	-564.23608	-734.96753	36.51239	-644.93945				
153	1.520	-666.15424	1762.22839	-749.43652										-518.10583	1506.42493	-654.39929	-815.86987	1502.86206	-707.02655	-673.09454	1443.50098	-568.30841	-663.65863	1536.26355	-734.46973	-383.72147	1156.53406	-616.09924	-961.45074	1156.38147	-723.03949	-437.97620	874.92975	-490.55026	-998.03552	904.10437	-551.74725	-526.67340	991.42682	-559.07062	-852.45990	1030.23340	-620.63690				-617.83972	510.06619	-542.79114	-947.91156	574.35779	-542.15869	-734.83655	36.24111	-644.67322				
154	1.530	-667.78857	1763.24731	-740.81165										-518.56689	1507.47583	-647.51166	-817.37695	1503.94641	-697.27521	-673.40393	1444.05774	-559.42682	-665.20447	1537.12915	-725.90619	-384.90729	1157.54199	-606.84686	-962.92267	1157.28967	-713.87866	-441.93311	879.85492	-475.83276	-1000.18042	902.34583	-545.94867	-525.69641	991.02295	-553.43500	-852.50604	1029.49670	-610.75897				-618.17236	509.82404	-539.61652	-946.48639	578.22699	-520.71088	-736.00659	36.04072	-645.36768				
155	1.540	-669.23273	1764.27661	-732.45483										-519.26050	1508.26257	-639.75555	-818.40424	1504.32349	-687.68549	-673.93317	1445.20361	-550.96313	-666.50159	1538.05481	-717.72064	-387.33405	1159.05798	-597.14435	-964.43561	1157.62183	-704.03003	-446.47296	884.34924	-460.91034	-1001.30884	900.15582	-539.99127	-524.13593	991.19733	-547.51422	-852.24103	1033.89050	-592.81818				-617.02795	509.08478	-538.88434	-944.59229	582.34198	-499.71051	-736.27863	35.55843	-645.43573				
156	1.550	-670.54486	1765.12305	-723.97693										-520.02026	1508.05591	-628.83319	-819.19885	1504.68250	-677.23523	-673.54736	1445.49695	-542.51428	-667.92072	1538.42554	-709.14508	-387.93091	1159.91113	-588.03162	-965.49207	1158.42102	-695.21997	-450.69818	888.33282	-444.82886	-1003.54779	899.07092	-534.41638	-522.84906	991.04871	-543.77521	-850.25372	1035.82617	-575.99152				-616.49487	509.08615	-537.14044	-942.05817	585.56519	-479.55408	-736.45123	36.06892	-645.60742				
157	1.560	-671.71008	1765.69971	-716.09979										-520.06250	1509.26160	-625.01654	-820.32104	1504.87891	-667.25830	-673.05627	1446.72510	-533.78064	-669.15247	1539.20154	-701.03210	-388.99841	1160.65515	-578.83234	-966.60876	1159.13745	-685.99371	-454.94064	893.41748	-430.26477	-1004.61029	896.49420	-527.98297	-522.35382	990.24164	-538.23871	-850.81946	1036.96021	-565.18384				-614.99463	509.48679	-535.86029	-939.10730	588.53448	-459.63345	-736.27863	35.55843	-645.43573	-870.29907	224.28227	-799.16217	
158	1.570	-672.60791	1766.14319	-707.68170										-521.48285	1509.98572	-616.76886	-820.80396	1505.39026	-657.02124	-671.52551	1447.34717	-524.71045	-670.47101	1539.35791	-691.97192	-389.57208	1161.30188	-569.71698	-967.80896	1159.53125	-675.89252	-458.77945	898.17993	-415.44247	-1005.58698	895.51196	-522.22308	-520.77588	990.65106	-530.54181	-849.55939	1036.85596	-552.32635				-614.52100	509.38815	-533.80072	-935.91797	591.59119	-440.84650	-736.07446	35.32483	-645.43561	-882.25812	215.07269	-769.67816	
159	1.580	-673.29309	1766.85754	-699.32050										-521.39404	1511.07104	-613.15308	-822.50031	1506.22253	-647.42859	-671.81744	1446.92151	-515.60419	-671.60187	1539.82751	-682.65222	-390.37943	1162.39075	-560.58099	-968.62067	1160.47913	-667.17145	-462.91479	903.26788	-400.20236	-1007.35718	893.35834	-516.28644	-518.85858	991.22522	-525.81744	-848.46777	1038.35388	-539.84448				-613.72308	508.50888	-532.02722	-932.76343	594.07697	-422.48944	-735.61292	36.13605	-645.16772	-892.57324	205.16612	-740.52728	
160	1.590	-673.88916	1766.74451	-690.96753										-521.61694	1509.88721	-603.22760	-823.09204	1506.42761	-636.77478	-671.31482	1448.18982	-507.03329	-672.58972	1540.38440	-674.24835	-391.55298	1162.39221	-552.13708	-969.53271	1160.84680	-657.28406	-466.47656	907.87482	-384.77686	-1008.82397	892.03699	-511.22549	-518.18433	990.61627	-520.28485	-848.25769	1039.14526	-526.70276				-613.14874	508.15155	-530.83374	-927.86493	595.87445	-405.08502	-735.61292	36.13605	-645.16772	-903.12335	195.37381	-711.41797	
